# xmcd
#
# Track frame offsets:
# 183
# 21803
# 36255
# 55838
# 73750
# 95215
# 111968
# 129365
# 144918
# 168440
# 183975
# 201345
# 217338
# 234098
#
# Disc length: 3362 seconds
#
#
# Revision: 0
# Processed by: cddbd v1.5.2PL0 Copyright (c) Steve Scherf et al.
# Submitted via: FreeRIP 2.96 
#
DISCID=ce0d200e
DTITLE=Fevers - Série POPULAR Brasileira
DYEAR=1900
DGENRE=Pop
TTITLE0=O Amor que Pedi - Diana - Oh Carol
TTITLE1=Gosto Dela
TTITLE2=Agora é pra Valer
TTITLE3=A força do amor
TTITLE4=Eu nasci há dez mil anos atrás
TTITLE5=Pergunta a ela
TTITLE6=Mexe o bumbum
TTITLE7=Troca, troca
TTITLE8=Não devo mais ficar - Não consigo viver sem você - Se você me quiser
TTITLE9=Agora é tarde
TTITLE10=Um louco
TTITLE11=Vamos ajuntar os troços
TTITLE12=Baby Sitter
TTITLE13=Gosto de Hortelã
EXTD=
EXTT0=
EXTT1=
EXTT2=
EXTT3=
EXTT4=
EXTT5=
EXTT6=
EXTT7=
EXTT8=
EXTT9=
EXTT10=
EXTT11=
EXTT12=
EXTT13=
PLAYORDER=
